<svg xmlns="http://www.w3.org/2000/svg" width="171" height="96" viewBox="0 0 171 96" fill="none"><script xmlns=""/><script xmlns=""/>
<mask id="mask0_9_392" style="mask-type:alpha" maskUnits="userSpaceOnUse" x="0" y="0" width="171" height="96">
<path d="M126.647 0H5.96947C3.13034 0 0.829224 2.30253 0.829224 5.14286V90.8571C0.829224 93.6975 3.13034 96 5.96947 96H126.647C128.103 96 129.491 95.3822 130.466 94.3001L169.069 51.443C170.832 49.4863 170.832 46.5137 169.069 44.557L130.466 1.69993C129.491 0.617791 128.103 0 126.647 0Z" fill="#D9D9D9"/>
</mask>
<g mask="url(#mask0_9_392)">
<path d="M172.093 0H37.7688V96H172.093V0Z" fill="#FFED00"/>
<path d="M113.058 46.9553C113.058 51.7233 112.429 55.8081 111.17 59.2099C109.94 62.5848 108.159 65.3438 105.829 67.4866C103.501 69.6295 100.663 71.2099 97.3151 72.2277C93.9962 73.2187 90.0331 73.7143 85.4291 73.7143H73.0206C72.1364 73.7143 71.3877 73.4599 70.7709 72.9509C70.1832 72.4152 69.8884 71.5581 69.8884 70.3795V25.0581C69.8884 23.8795 70.1832 23.0357 70.7709 22.5268C71.3877 21.991 72.1364 21.7233 73.0206 21.7233H86.3526C90.984 21.7233 94.906 22.2724 98.1187 23.3705C101.359 24.442 104.076 26.0491 106.271 28.192C108.493 30.3081 110.179 32.933 111.331 36.067C112.482 39.2009 113.058 42.8304 113.058 46.9553ZM102.135 47.317C102.135 44.8528 101.84 42.5625 101.251 40.4465C100.689 38.3304 99.7653 36.4956 98.4802 34.942C97.2226 33.3885 95.5897 32.183 93.5815 31.3258C91.6008 30.442 88.9896 30 85.7495 30H80.4088V65.3572H85.9106C88.8028 65.3572 91.2393 64.9821 93.22 64.2322C95.2007 63.4821 96.8473 62.3572 98.1598 60.8572C99.4979 59.3304 100.488 57.442 101.131 55.192C101.801 52.942 102.135 50.317 102.135 47.317Z" fill="white"/>
<path d="M39.2609 0H0.829224V96H39.2609V0Z" fill="white"/>
<path d="M31.2064 30.9309C31.34 31.3325 31.4223 31.6507 31.4565 31.885C31.4908 32.1194 31.4445 32.298 31.3229 32.4207C31.1995 32.5323 30.9819 32.5994 30.67 32.6217C30.3582 32.6551 29.9282 32.6719 29.3816 32.6719C28.8127 32.6719 28.3672 32.6607 28.0434 32.6385C27.7316 32.6273 27.4917 32.5994 27.3238 32.5546C27.1559 32.4989 27.0393 32.4264 26.9725 32.3371C26.9057 32.2478 26.8492 32.1305 26.8046 31.9855L25.3499 27.6327H17.2163L15.8456 31.8682C15.8011 32.0246 15.7394 32.1585 15.6606 32.2701C15.5937 32.3705 15.4772 32.4542 15.3093 32.5212C15.1534 32.5771 14.9255 32.616 14.6239 32.6385C14.3344 32.6607 13.9489 32.6719 13.4691 32.6719C12.9551 32.6719 12.5542 32.6551 12.2646 32.6217C11.975 32.5882 11.7728 32.5101 11.6614 32.3873C11.5501 32.2534 11.5107 32.0691 11.5449 31.8348C11.5775 31.6005 11.6614 31.2879 11.7951 30.8973L18.4723 11.6786C18.5391 11.4888 18.6179 11.3382 18.707 11.2266C18.7961 11.1038 18.9349 11.0145 19.1251 10.9587C19.3256 10.8918 19.598 10.8527 19.9441 10.8415C20.2902 10.8192 20.7477 10.808 21.3165 10.808C21.9745 10.808 22.4988 10.8192 22.8895 10.8415C23.2801 10.8527 23.5817 10.8918 23.7924 10.9587C24.0169 11.0145 24.1728 11.1038 24.2619 11.2266C24.3613 11.3493 24.4452 11.5167 24.512 11.7288L31.2064 30.9309ZM21.2669 15.0435H21.2497L18.1879 24.2511H24.3287L21.2669 15.0435Z" fill="black"/>
<path d="M30.838 69.1306C30.838 69.4543 30.8209 69.7332 30.7866 69.9677C30.7643 70.202 30.7266 70.3916 30.67 70.5368C30.6255 70.6707 30.5638 70.7655 30.4867 70.8214C30.4199 70.8773 30.3359 70.9051 30.2348 70.9051C30.0892 70.9051 29.8562 70.8046 29.5324 70.6037C29.2086 70.403 28.7785 70.1852 28.2439 69.9509C27.7093 69.7166 27.0668 69.4989 26.3197 69.2979C25.583 69.097 24.7245 68.9966 23.7427 68.9966C22.6941 68.9966 21.7466 69.1809 20.8985 69.5491C20.0504 69.9062 19.3255 70.4196 18.7224 71.0894C18.121 71.7478 17.6584 72.5458 17.3346 73.4832C17.0107 74.4096 16.8497 75.4365 16.8497 76.5636C16.8497 77.8025 17.0107 78.8962 17.3346 79.8449C17.6687 80.7823 18.1313 81.5691 18.7224 82.2053C19.3136 82.8415 20.0229 83.3215 20.8488 83.6451C21.6849 83.9688 22.6051 84.1306 23.6091 84.1306C24.0992 84.1306 24.5857 84.0747 25.0655 83.9631C25.5435 83.8515 25.9907 83.6842 26.4037 83.4608V78.4387H22.3035C22.103 78.4387 21.9471 78.3158 21.8357 78.0703C21.7244 77.8136 21.6678 77.3839 21.6678 76.7813C21.6678 76.4688 21.6798 76.2065 21.7021 75.9944C21.7346 75.7824 21.7792 75.6149 21.8357 75.4922C21.8906 75.3583 21.9574 75.2633 22.0362 75.2076C22.115 75.1406 22.2041 75.1071 22.3035 75.1071H29.6163C29.7945 75.1071 29.9504 75.1406 30.0841 75.2076C30.2297 75.2633 30.3514 75.3526 30.4525 75.4754C30.5638 75.5983 30.6478 75.7488 30.7044 75.9274C30.7592 76.0949 30.7866 76.2902 30.7866 76.5134V85.135C30.7866 85.4698 30.7266 85.7655 30.6033 86.0223C30.4919 86.2678 30.252 86.4631 29.8836 86.6083C29.5272 86.7533 29.08 86.904 28.5454 87.0603C28.0091 87.2165 27.4523 87.3504 26.8714 87.462C26.3026 87.5736 25.7234 87.6574 25.1323 87.7131C24.5515 87.769 23.9655 87.7968 23.3743 87.7968C21.6455 87.7968 20.0949 87.5513 18.7224 87.0603C17.362 86.558 16.2071 85.8382 15.2596 84.9007C14.3104 83.952 13.5856 82.8024 13.0836 81.452C12.5816 80.0904 12.3314 78.5503 12.3314 76.8315C12.3314 75.0569 12.5987 73.4666 13.135 72.0603C13.6696 70.6428 14.4286 69.4431 15.4104 68.4609C16.3922 67.4676 17.5744 66.7087 18.9571 66.1841C20.3519 65.6595 21.9026 65.3972 23.6091 65.3972C24.5464 65.3972 25.3996 65.4643 26.1689 65.5982C26.9383 65.7209 27.6082 65.8772 28.1771 66.067C28.7562 66.2455 29.2359 66.4409 29.6163 66.653C29.995 66.865 30.2572 67.0491 30.4028 67.2053C30.5587 67.3616 30.6701 67.5848 30.7369 67.8751C30.8037 68.154 30.838 68.5726 30.838 69.1306Z" fill="black"/>
<path d="M29.3644 46.9289L21.26 38.2533L13.135 46.9512L15.3745 49.3471L19.6785 44.7391V57.4138H22.8432V44.7391L27.1267 49.3252L29.3644 46.9289Z" fill="black"/>
<path fill-rule="evenodd" clip-rule="evenodd" d="M126.647 1.71429H5.96947C4.07614 1.71429 2.54264 3.24931 2.54264 5.14286V90.8571C2.54264 92.7507 4.07614 94.2857 5.96947 94.2857H126.647C127.618 94.2857 128.544 93.8739 129.193 93.1524L167.796 50.2953C168.972 48.9909 168.972 47.0091 167.796 45.7047L129.193 2.84757C128.544 2.12614 127.618 1.71429 126.647 1.71429ZM5.96947 0H126.647C128.103 0 129.491 0.617791 130.466 1.69993L169.069 44.557C170.832 46.5137 170.832 49.4863 169.069 51.443L130.466 94.3001C129.491 95.3822 128.103 96 126.647 96H5.96947C3.13034 96 0.829224 93.6975 0.829224 90.8571V5.14286C0.829224 2.30253 3.13034 0 5.96947 0Z" fill="black"/>
</g>
<script xmlns=""/></svg>