<svg xmlns="http://www.w3.org/2000/svg" width="170" height="96" viewBox="0 0 170 96" fill="none"><script xmlns=""/><script xmlns=""/>
<mask id="mask0_9_414" style="mask-type:alpha" maskUnits="userSpaceOnUse" x="0" y="0" width="170" height="96">
<path d="M125.867 0H5.18907C2.34994 0 0.0488281 2.30253 0.0488281 5.14286V90.8571C0.0488281 93.6975 2.34994 96 5.18907 96H125.867C127.323 96 128.711 95.3822 129.686 94.3001L168.289 51.443C170.052 49.4863 170.052 46.5137 168.289 44.557L129.686 1.69993C128.711 0.617791 127.323 0 125.867 0Z" fill="#D9D9D9"/>
</mask>
<g mask="url(#mask0_9_414)">
<path d="M171.313 0H36.9883V96H171.313V0Z" fill="#EC6608"/>
<path d="M98.2617 26.0625C98.2617 26.8661 98.2223 27.5491 98.1417 28.1116C98.0886 28.6473 97.9807 29.0758 97.8196 29.3973C97.686 29.7187 97.5266 29.9599 97.3382 30.1205C97.1514 30.2813 96.9372 30.3616 96.6956 30.3616H79.7088V44.3438H95.6521C95.8937 44.3438 96.1062 44.4106 96.2947 44.5447C96.4814 44.6786 96.6425 44.9062 96.7761 45.2277C96.9372 45.5491 97.0434 45.9777 97.0982 46.5134C97.1788 47.0491 97.2182 47.7187 97.2182 48.5224C97.2182 49.3258 97.1788 49.9956 97.0982 50.5313C97.0434 51.067 96.9372 51.509 96.7761 51.8572C96.6425 52.2053 96.4814 52.4599 96.2947 52.6205C96.1062 52.7544 95.8937 52.8214 95.6521 52.8214H79.7088V72.1876C79.7088 72.4821 79.6283 72.7366 79.4689 72.9509C79.3079 73.1652 79.0132 73.3528 78.5848 73.5134C78.1839 73.6473 77.6476 73.7544 76.9777 73.8348C76.3094 73.9152 75.4527 73.9553 74.4075 73.9553C73.3915 73.9553 72.5348 73.9152 71.8374 73.8348C71.1692 73.7544 70.6329 73.6473 70.2319 73.5134C69.831 73.3528 69.5363 73.1652 69.3478 72.9509C69.1885 72.7366 69.1079 72.4821 69.1079 72.1876V25.0581C69.1079 23.8795 69.4026 23.0357 69.9903 22.5268C70.6072 21.991 71.3559 21.7233 72.24 21.7233H96.6956C96.9372 21.7233 97.1514 21.8037 97.3382 21.9643C97.5266 22.0982 97.686 22.3392 97.8196 22.6876C97.9807 23.009 98.0886 23.4509 98.1417 24.0134C98.2223 24.5758 98.2617 25.259 98.2617 26.0625Z" fill="white"/>
<path d="M38.4805 0H0.0488281V96H38.4805V0Z" fill="white"/>
<path d="M30.4258 30.9309C30.5595 31.3325 30.6417 31.6507 30.676 31.885C30.7102 32.1194 30.664 32.298 30.5423 32.4207C30.4189 32.5323 30.2014 32.5994 29.8895 32.6217C29.5777 32.6551 29.1476 32.6719 28.601 32.6719C28.0322 32.6719 27.5867 32.6607 27.2628 32.6385C26.951 32.6273 26.7111 32.5994 26.5432 32.5546C26.3753 32.4989 26.2588 32.4264 26.1919 32.3371C26.1251 32.2478 26.0685 32.1305 26.024 31.9855L24.5693 27.6327H16.4358L15.065 31.8682C15.0205 32.0246 14.9588 32.1585 14.88 32.2701C14.8132 32.3705 14.6966 32.4542 14.5287 32.5212C14.3728 32.5771 14.145 32.616 13.8434 32.6385C13.5539 32.6607 13.1683 32.6719 12.6886 32.6719C12.1745 32.6719 11.7736 32.6551 11.484 32.6217C11.1945 32.5882 10.9923 32.5101 10.8809 32.3873C10.7695 32.2534 10.7302 32.0691 10.7644 31.8348C10.797 31.6005 10.8809 31.2879 11.0146 30.8973L17.6917 11.6786C17.7585 11.4888 17.8374 11.3382 17.9265 11.2266C18.0156 11.1038 18.1543 11.0145 18.3445 10.9587C18.5449 10.8918 18.8174 10.8527 19.1635 10.8415C19.5096 10.8192 19.9671 10.808 20.5359 10.808C21.1939 10.808 21.7182 10.8192 22.1089 10.8415C22.4995 10.8527 22.8011 10.8918 23.0118 10.9587C23.2363 11.0145 23.3923 11.1038 23.4814 11.2266C23.5808 11.3493 23.6647 11.5167 23.7315 11.7288L30.4258 30.9309ZM20.4862 15.0435H20.4692L17.4072 24.2511H23.5482L20.4862 15.0435Z" fill="black"/>
<path d="M30.0574 69.1306C30.0574 69.4543 30.0404 69.7332 30.0061 69.9677C29.9838 70.202 29.9461 70.3916 29.8896 70.5368C29.845 70.6707 29.7834 70.7655 29.7063 70.8214C29.6394 70.8773 29.5554 70.9051 29.4543 70.9051C29.3087 70.9051 29.0757 70.8046 28.7519 70.6037C28.428 70.403 27.9979 70.1852 27.4634 69.9509C26.9288 69.7166 26.2863 69.4989 25.5392 69.2979C24.8025 69.097 23.944 68.9966 22.9622 68.9966C21.9136 68.9966 20.9661 69.1809 20.118 69.5491C19.2698 69.9062 18.545 70.4196 17.9419 71.0894C17.3405 71.7478 16.8779 72.5458 16.554 73.4832C16.2302 74.4096 16.0691 75.4365 16.0691 76.5636C16.0691 77.8025 16.2302 78.8962 16.554 79.8449C16.8882 80.7823 17.3508 81.5691 17.9419 82.2053C18.533 82.8415 19.2424 83.3215 20.0683 83.6451C20.9044 83.9688 21.8245 84.1306 22.8285 84.1306C23.3186 84.1306 23.8053 84.0747 24.285 83.9631C24.7631 83.8515 25.2103 83.6842 25.6232 83.4608V78.4387H21.523C21.3225 78.4387 21.1666 78.3158 21.0552 78.0703C20.9438 77.8136 20.8873 77.3839 20.8873 76.7813C20.8873 76.4688 20.8993 76.2065 20.9216 75.9944C20.9541 75.7824 20.9987 75.6149 21.0552 75.4922C21.11 75.3583 21.1769 75.2633 21.2557 75.2076C21.3345 75.1406 21.4236 75.1071 21.523 75.1071H28.8359C29.014 75.1071 29.1699 75.1406 29.3035 75.2076C29.4492 75.2633 29.5709 75.3526 29.672 75.4754C29.7833 75.5983 29.8672 75.7488 29.9238 75.9274C29.9786 76.0949 30.0061 76.2902 30.0061 76.5134V85.135C30.0061 85.4698 29.9461 85.7655 29.8228 86.0223C29.7114 86.2678 29.4714 86.4631 29.1031 86.6083C28.7467 86.7533 28.2996 86.904 27.765 87.0603C27.2287 87.2165 26.6717 87.3504 26.0909 87.462C25.522 87.5736 24.943 87.6574 24.3518 87.7131C23.771 87.769 23.185 87.7968 22.5939 87.7968C20.865 87.7968 19.3144 87.5513 17.9419 87.0603C16.5815 86.558 15.4266 85.8382 14.4791 84.9007C13.5299 83.952 12.8051 82.8024 12.303 81.452C11.801 80.0904 11.5509 78.5503 11.5509 76.8315C11.5509 75.0569 11.8182 73.4666 12.3545 72.0603C12.8891 70.6428 13.6481 69.4431 14.6299 68.4609C15.6117 67.4676 16.794 66.7087 18.1767 66.1841C19.5714 65.6595 21.122 65.3972 22.8285 65.3972C23.7658 65.3972 24.6191 65.4643 25.3884 65.5982C26.1577 65.7209 26.8277 65.8772 27.3965 66.067C27.9757 66.2455 28.4555 66.4409 28.8359 66.653C29.2145 66.865 29.4766 67.0491 29.6223 67.2053C29.7782 67.3616 29.8896 67.5848 29.9564 67.8751C30.0232 68.154 30.0574 68.5726 30.0574 69.1306Z" fill="black"/>
<path d="M28.5839 46.9289L20.4795 38.2533L12.3545 46.9512L14.5939 49.3471L18.898 44.7391V57.4138H22.0627V44.7391L26.3463 49.3252L28.5839 46.9289Z" fill="black"/>
<path fill-rule="evenodd" clip-rule="evenodd" d="M125.867 1.71429H5.18907C3.29575 1.71429 1.76224 3.24931 1.76224 5.14286V90.8571C1.76224 92.7507 3.29575 94.2857 5.18907 94.2857H125.867C126.838 94.2857 127.763 93.8739 128.413 93.1524L167.016 50.2953C168.191 48.9909 168.191 47.0091 167.016 45.7047L128.413 2.84757C127.763 2.12614 126.838 1.71429 125.867 1.71429ZM5.18907 0H125.867C127.323 0 128.711 0.617791 129.686 1.69993L168.289 44.557C170.052 46.5137 170.052 49.4863 168.289 51.443L129.686 94.3001C128.711 95.3822 127.323 96 125.867 96H5.18907C2.34994 96 0.0488281 93.6975 0.0488281 90.8571V5.14286C0.0488281 2.30253 2.34994 0 5.18907 0Z" fill="black"/>
</g>
<script xmlns=""/></svg>