<svg xmlns="http://www.w3.org/2000/svg" width="170" height="96" viewBox="0 0 170 96" fill="none"><script xmlns=""/><script xmlns=""/>
<mask id="mask0_9_359" style="mask-type:alpha" maskUnits="userSpaceOnUse" x="0" y="0" width="170" height="96">
<path d="M125.819 0H5.14024C2.30137 0 0 2.30253 0 5.14286V90.8571C0 93.6975 2.30137 96 5.14024 96H125.819C127.274 96 128.662 95.3822 129.637 94.3001L168.24 51.443C170.003 49.4863 170.003 46.5137 168.24 44.557L129.637 1.69993C128.662 0.617791 127.274 0 125.819 0Z" fill="#D9D9D9"/>
</mask>
<g mask="url(#mask0_9_359)">
<path d="M171.264 0H36.9391V96H171.264V0Z" fill="#009640"/>
<path d="M111.626 69.7767C111.947 70.741 112.148 71.5044 112.229 72.067C112.309 72.6295 112.202 73.0581 111.907 73.3527C111.613 73.6205 111.091 73.7813 110.341 73.8348C109.592 73.9152 108.561 73.9553 107.249 73.9553C105.884 73.9553 104.813 73.9286 104.036 73.8751C103.287 73.8482 102.711 73.7813 102.31 73.6742C101.908 73.5401 101.627 73.3661 101.466 73.1518C101.306 72.9375 101.172 72.6562 101.065 72.3081L97.5709 61.8615H78.0541L74.7611 72.0267C74.654 72.4018 74.5068 72.7233 74.3193 72.991C74.1586 73.2322 73.8776 73.433 73.476 73.5938C73.1013 73.7277 72.5525 73.8214 71.8296 73.8751C71.1334 73.9286 70.2099 73.9553 69.0586 73.9553C67.827 73.9553 66.8632 73.9152 66.1673 73.8348C65.4711 73.7544 64.9893 73.567 64.7215 73.2723C64.4538 72.9509 64.3601 72.509 64.4405 71.9465C64.5207 71.3839 64.7215 70.6339 65.0427 69.6963L81.0659 23.5714C81.2265 23.1161 81.4139 22.7544 81.6281 22.4866C81.8423 22.1919 82.1769 21.9777 82.6321 21.8438C83.114 21.683 83.7699 21.5894 84.5998 21.5625C85.4298 21.509 86.5274 21.4821 87.8928 21.4821C89.4724 21.4821 90.7306 21.509 91.6677 21.5625C92.6047 21.5894 93.3276 21.683 93.8362 21.8438C94.3716 21.9777 94.7465 22.1919 94.9607 22.4866C95.2016 22.7813 95.4024 23.183 95.5629 23.6919L111.626 69.7767ZM87.7724 31.6473H87.7321L80.3833 53.7456H95.1212L87.7724 31.6473Z" fill="white"/>
<path d="M38.4317 0H0V96H38.4317V0Z" fill="white"/>
<path d="M30.3763 30.9309C30.5101 31.3325 30.5939 31.6507 30.6273 31.885C30.6607 32.1194 30.6161 32.298 30.4935 32.4207C30.3708 32.5323 30.1532 32.5994 29.8408 32.6217C29.5285 32.6551 29.0991 32.6719 28.5525 32.6719C27.9835 32.6719 27.5373 32.6607 27.2138 32.6385C26.9015 32.6273 26.6616 32.5994 26.4944 32.5546C26.327 32.4989 26.2099 32.4264 26.1429 32.3371C26.0761 32.2478 26.0202 32.1305 25.9757 31.9855L24.5198 27.6327H16.3879L15.0158 31.8682C14.9712 32.0246 14.9098 32.1585 14.8317 32.2701C14.7648 32.3705 14.6477 32.4542 14.4804 32.5212C14.3242 32.5771 14.0955 32.616 13.7943 32.6385C13.5043 32.6607 13.1194 32.6719 12.6398 32.6719C12.1266 32.6719 11.7251 32.6551 11.435 32.6217C11.145 32.5882 10.9442 32.5101 10.8327 32.3873C10.7211 32.2534 10.6821 32.0691 10.7155 31.8348C10.749 31.6005 10.8327 31.2879 10.9665 30.8973L17.6429 11.6786C17.7097 11.4888 17.7878 11.3382 17.8771 11.2266C17.9663 11.1038 18.1058 11.0145 18.2953 10.9587C18.4961 10.8918 18.7694 10.8527 19.1152 10.8415C19.4611 10.8192 19.9184 10.808 20.4873 10.808C21.1454 10.808 21.6697 10.8192 22.0602 10.8415C22.4507 10.8527 22.7517 10.8918 22.9637 10.9587C23.1869 11.0145 23.343 11.1038 23.4323 11.2266C23.5327 11.3493 23.6163 11.5167 23.6833 11.7288L30.3763 30.9309ZM20.4371 15.0435H20.4205L17.3584 24.2511H23.4991L20.4371 15.0435Z" fill="black"/>
<path d="M30.0082 69.1306C30.0082 69.4543 29.9914 69.7332 29.958 69.9677C29.9357 70.202 29.8967 70.3916 29.8408 70.5368C29.7963 70.6707 29.7349 70.7655 29.6568 70.8214C29.5898 70.8773 29.5062 70.9051 29.4058 70.9051C29.2608 70.9051 29.0266 70.8046 28.7031 70.6037C28.3796 70.403 27.9501 70.1852 27.4146 69.9509C26.8792 69.7166 26.2379 69.4989 25.4905 69.2979C24.7542 69.097 23.8953 68.9966 22.9135 68.9966C21.865 68.9966 20.9168 69.1809 20.069 69.5491C19.2212 69.9062 18.4961 70.4196 17.8939 71.0894C17.2914 71.7478 16.8285 72.5458 16.505 73.4832C16.1815 74.4096 16.0197 75.4365 16.0197 76.5636C16.0197 77.8025 16.1815 78.8962 16.505 79.8449C16.8396 80.7823 17.3026 81.5691 17.8939 82.2053C18.485 82.8415 19.1933 83.3215 20.0188 83.6451C20.8555 83.9688 21.7758 84.1306 22.7797 84.1306C23.2706 84.1306 23.7558 84.0747 24.2354 83.9631C24.7151 83.8515 25.1613 83.6842 25.5741 83.4608V78.4387H21.4746C21.2737 78.4387 21.1177 78.3158 21.0061 78.0703C20.8946 77.8136 20.8387 77.3839 20.8387 76.7813C20.8387 76.4688 20.8498 76.2065 20.8721 75.9944C20.9057 75.7824 20.9503 75.6149 21.0061 75.4922C21.0618 75.3583 21.1288 75.2633 21.2069 75.2076C21.2849 75.1406 21.3742 75.1071 21.4746 75.1071H28.7867C28.9651 75.1071 29.1214 75.1406 29.2552 75.2076C29.4003 75.2633 29.523 75.3526 29.6234 75.4754C29.7349 75.5983 29.8185 75.7488 29.8742 75.9274C29.9301 76.0949 29.958 76.2902 29.958 76.5134V85.135C29.958 85.4698 29.8967 85.7655 29.774 86.0223C29.6623 86.2678 29.4226 86.4631 29.0544 86.6083C28.6975 86.7533 28.2513 86.904 27.7158 87.0603C27.1804 87.2165 26.6227 87.3504 26.0425 87.462C25.4737 87.5736 24.8935 87.6574 24.3024 87.7131C23.7224 87.769 23.1367 87.7968 22.5454 87.7968C20.8164 87.7968 19.2658 87.5513 17.8939 87.0603C16.5329 86.558 15.3783 85.8382 14.4302 84.9007C13.482 83.952 12.7569 82.8024 12.2549 81.452C11.753 80.0904 11.502 78.5503 11.502 76.8315C11.502 75.0569 11.7697 73.4666 12.3051 72.0603C12.8406 70.6428 13.5991 69.4431 14.5808 68.4609C15.5624 67.4676 16.7448 66.7087 18.1281 66.1841C19.5225 65.6595 21.0729 65.3972 22.7797 65.3972C23.7167 65.3972 24.57 65.4643 25.3399 65.5982C26.1095 65.7209 26.7788 65.8772 27.3476 66.067C27.9278 66.2455 28.4074 66.4409 28.7867 66.653C29.1659 66.865 29.4281 67.0491 29.5732 67.2053C29.7293 67.3616 29.8408 67.5848 29.9078 67.8751C29.9746 68.154 30.0082 68.5726 30.0082 69.1306Z" fill="black"/>
<path d="M28.5352 46.9289L20.4309 38.2533L12.3062 46.9512L14.5444 49.3471L18.8486 44.7391V57.4138H22.0134V44.7391L26.2971 49.3252L28.5352 46.9289Z" fill="black"/>
<path fill-rule="evenodd" clip-rule="evenodd" d="M125.819 1.71429H5.14024C3.24766 1.71429 1.71341 3.24931 1.71341 5.14286V90.8571C1.71341 92.7507 3.24766 94.2857 5.14024 94.2857H125.819C126.789 94.2857 127.714 93.8739 128.364 93.1524L166.967 50.2953C168.142 48.9909 168.142 47.0091 166.967 45.7047L128.364 2.84757C127.714 2.12614 126.789 1.71429 125.819 1.71429ZM5.14024 0H125.819C127.274 0 128.662 0.617791 129.637 1.69993L168.24 44.557C170.003 46.5137 170.003 49.4863 168.24 51.443L129.637 94.3001C128.662 95.3822 127.274 96 125.819 96H5.14024C2.30137 96 0 93.6975 0 90.8571V5.14286C0 2.30253 2.30137 0 5.14024 0Z" fill="black"/>
</g>
<script xmlns=""/></svg>