<svg xmlns="http://www.w3.org/2000/svg" width="170" height="96" viewBox="0 0 170 96" fill="none"><script xmlns=""/><script xmlns=""/>
<mask id="mask0_9_403" style="mask-type:alpha" maskUnits="userSpaceOnUse" x="0" y="0" width="171" height="96">
<path d="M126.257 0H5.57921C2.74008 0 0.438965 2.30253 0.438965 5.14286V90.8571C0.438965 93.6975 2.74008 96 5.57921 96H126.257C127.713 96 129.101 95.3822 130.076 94.3001L168.679 51.443C170.442 49.4863 170.442 46.5137 168.679 44.557L130.076 1.69993C129.101 0.617791 127.713 0 126.257 0Z" fill="#D9D9D9"/>
</mask>
<g mask="url(#mask0_9_403)">
<path d="M171.703 0H37.3784V96H171.703V0Z" fill="#FBBA00"/>
<path d="M100.299 69.5758C100.299 70.3527 100.259 71.009 100.179 71.5447C100.125 72.0535 100.031 72.4687 99.8976 72.7901C99.7639 73.1115 99.5892 73.3528 99.375 73.5134C99.1882 73.6473 98.9741 73.7143 98.7325 73.7143H72.6303C71.7462 73.7143 70.9974 73.4599 70.3806 72.9509C69.7929 72.4152 69.4982 71.5581 69.4982 70.3795V25.0581C69.4982 23.8795 69.7929 23.0357 70.3806 22.5268C70.9974 21.991 71.7462 21.7233 72.6303 21.7233H98.5714C98.813 21.7233 99.0272 21.7901 99.2139 21.9242C99.4024 22.0581 99.5635 22.2991 99.6971 22.6473C99.8307 22.9687 99.9233 23.3973 99.9781 23.933C100.059 24.442 100.098 25.0982 100.098 25.9018C100.098 26.6518 100.059 27.2947 99.9781 27.8304C99.9233 28.3392 99.8307 28.7544 99.6971 29.0758C99.5635 29.3973 99.4024 29.6385 99.2139 29.7991C99.0272 29.933 98.813 30 98.5714 30H80.0186V42.6964H95.7203C95.9619 42.6964 96.1761 42.7768 96.3628 42.9376C96.577 43.0714 96.7518 43.2991 96.8854 43.6205C97.0191 43.9152 97.1133 44.3304 97.1664 44.8661C97.2469 45.3751 97.2864 46.0044 97.2864 46.7544C97.2864 47.5313 97.2469 48.1742 97.1664 48.683C97.1133 49.1919 97.0191 49.6072 96.8854 49.9286C96.7518 50.2233 96.577 50.4376 96.3628 50.5714C96.1761 50.7053 95.9619 50.7724 95.7203 50.7724H80.0186V65.4376H98.7325C98.9741 65.4376 99.1882 65.5179 99.375 65.6786C99.5892 65.8125 99.7639 66.0401 99.8976 66.3615C100.031 66.683 100.125 67.1115 100.179 67.6473C100.259 68.1562 100.299 68.7991 100.299 69.5758ZM112.668 148.098C112.668 152.866 112.039 156.951 110.779 160.353C109.549 163.728 107.769 166.487 105.439 168.63C103.11 170.772 100.273 172.353 96.9248 173.371C93.6059 174.362 89.6428 174.857 85.0389 174.857H72.6303C71.7462 174.857 70.9974 174.603 70.3806 174.094C69.7929 173.558 69.4982 172.701 69.4982 171.523V126.201C69.4982 125.022 69.7929 124.179 70.3806 123.67C70.9974 123.134 71.7462 122.866 72.6303 122.866H85.9624C90.5937 122.866 94.5158 123.415 97.7284 124.513C100.968 125.585 103.686 127.192 105.881 129.335C108.103 131.451 109.789 134.076 110.941 137.21C112.092 140.344 112.668 143.973 112.668 148.098ZM101.745 148.46C101.745 145.996 101.45 143.705 100.861 141.589C100.299 139.473 99.375 137.638 98.0899 136.085C96.8323 134.531 95.1994 133.326 93.1913 132.469C91.2106 131.585 88.5993 131.143 85.3593 131.143H80.0186V166.5H85.5203C88.4126 166.5 90.849 166.125 92.8297 165.375C94.8105 164.625 96.457 163.5 97.7695 162C99.1077 160.473 100.098 158.585 100.741 156.335C101.411 154.085 101.745 151.46 101.745 148.46Z" fill="white"/>
<path d="M38.8707 0H0.438965V96H38.8707V0Z" fill="white"/>
<path d="M30.8161 30.9309C30.9498 31.3325 31.032 31.6507 31.0663 31.885C31.1005 32.1194 31.0543 32.298 30.9326 32.4207C30.8093 32.5323 30.5916 32.5994 30.2798 32.6217C29.9679 32.6551 29.5379 32.6719 28.9913 32.6719C28.4225 32.6719 27.977 32.6607 27.6531 32.6385C27.3413 32.6273 27.1015 32.5994 26.9335 32.5546C26.7656 32.4989 26.6491 32.4264 26.5823 32.3371C26.5154 32.2478 26.4589 32.1305 26.4144 31.9855L24.9597 27.6327H16.8261L15.4554 31.8682C15.4108 32.0246 15.3491 32.1585 15.2703 32.2701C15.2035 32.3705 15.0869 32.4542 14.919 32.5212C14.7631 32.5771 14.5352 32.616 14.2337 32.6385C13.9441 32.6607 13.5586 32.6719 13.0789 32.6719C12.5648 32.6719 12.1639 32.6551 11.8743 32.6217C11.5848 32.5882 11.3825 32.5101 11.2712 32.3873C11.1598 32.2534 11.1204 32.0691 11.1547 31.8348C11.1872 31.6005 11.2712 31.2879 11.4048 30.8973L18.082 11.6786C18.1488 11.4888 18.2276 11.3382 18.3167 11.2266C18.4058 11.1038 18.5447 11.0145 18.7348 10.9587C18.9353 10.8918 19.2077 10.8527 19.5538 10.8415C19.9 10.8192 20.3574 10.808 20.9263 10.808C21.5842 10.808 22.1085 10.8192 22.4992 10.8415C22.8899 10.8527 23.1914 10.8918 23.4022 10.9587C23.6266 11.0145 23.7825 11.1038 23.8716 11.2266C23.971 11.3493 24.055 11.5167 24.1218 11.7288L30.8161 30.9309ZM20.8766 15.0435H20.8595L17.7976 24.2511H23.9385L20.8766 15.0435Z" fill="black"/>
<path d="M30.4477 69.1306C30.4477 69.4543 30.4306 69.7332 30.3963 69.9677C30.3741 70.202 30.3363 70.3916 30.2798 70.5368C30.2352 70.6707 30.1736 70.7655 30.0965 70.8214C30.0296 70.8773 29.9457 70.9051 29.8446 70.9051C29.6989 70.9051 29.466 70.8046 29.1421 70.6037C28.8183 70.403 28.3882 70.1852 27.8536 69.9509C27.319 69.7166 26.6765 69.4989 25.9295 69.2979C25.1927 69.097 24.3342 68.9966 23.3525 68.9966C22.3038 68.9966 21.3564 69.1809 20.5082 69.5491C19.6601 69.9062 18.9353 70.4196 18.3322 71.0894C17.7308 71.7478 17.2681 72.5458 16.9443 73.4832C16.6205 74.4096 16.4594 75.4365 16.4594 76.5636C16.4594 77.8025 16.6205 78.8962 16.9443 79.8449C17.2784 80.7823 17.741 81.5691 18.3322 82.2053C18.9233 82.8415 19.6326 83.3215 20.4585 83.6451C21.2947 83.9688 22.2148 84.1306 23.2189 84.1306C23.7089 84.1306 24.1955 84.0747 24.6752 83.9631C25.1533 83.8515 25.6005 83.6842 26.0134 83.4608V78.4387H21.9132C21.7127 78.4387 21.5568 78.3158 21.4455 78.0703C21.3341 77.8136 21.2775 77.3839 21.2775 76.7813C21.2775 76.4688 21.2895 76.2065 21.3118 75.9944C21.3444 75.7824 21.3889 75.6149 21.4455 75.4922C21.5003 75.3583 21.5671 75.2633 21.6459 75.2076C21.7248 75.1406 21.8138 75.1071 21.9132 75.1071H29.2261C29.4043 75.1071 29.5602 75.1406 29.6938 75.2076C29.8395 75.2633 29.9611 75.3526 30.0622 75.4754C30.1736 75.5983 30.2575 75.7488 30.3141 75.9274C30.3689 76.0949 30.3963 76.2902 30.3963 76.5134V85.135C30.3963 85.4698 30.3364 85.7655 30.213 86.0223C30.1016 86.2678 29.8617 86.4631 29.4934 86.6083C29.137 86.7533 28.6898 86.904 28.1552 87.0603C27.6189 87.2165 27.062 87.3504 26.4812 87.462C25.9123 87.5736 25.3332 87.6574 24.742 87.7131C24.1612 87.769 23.5752 87.7968 22.9841 87.7968C21.2552 87.7968 19.7046 87.5513 18.3322 87.0603C16.9717 86.558 15.8169 85.8382 14.8694 84.9007C13.9201 83.952 13.1954 82.8024 12.6933 81.452C12.1913 80.0904 11.9412 78.5503 11.9412 76.8315C11.9412 75.0569 12.2084 73.4666 12.7447 72.0603C13.2793 70.6428 14.0384 69.4431 15.0202 68.4609C16.0019 67.4676 17.1842 66.7087 18.5669 66.1841C19.9616 65.6595 21.5123 65.3972 23.2189 65.3972C24.1561 65.3972 25.0094 65.4643 25.7787 65.5982C26.548 65.7209 27.2179 65.8772 27.7868 66.067C28.3659 66.2455 28.8457 66.4409 29.2261 66.653C29.6047 66.865 29.8669 67.0491 30.0125 67.2053C30.1685 67.3616 30.2798 67.5848 30.3466 67.8751C30.4134 68.154 30.4477 68.5726 30.4477 69.1306Z" fill="black"/>
<path d="M28.9742 46.9289L20.8698 38.2533L12.7448 46.9512L14.9842 49.3471L19.2883 44.7391V57.4138H22.4529V44.7391L26.7365 49.3252L28.9742 46.9289Z" fill="black"/>
<path fill-rule="evenodd" clip-rule="evenodd" d="M126.257 1.71429H5.57921C3.68589 1.71429 2.15238 3.24931 2.15238 5.14286V90.8571C2.15238 92.7507 3.68589 94.2857 5.57921 94.2857H126.257C127.228 94.2857 128.153 93.8739 128.803 93.1524L167.406 50.2953C168.581 48.9909 168.581 47.0091 167.406 45.7047L128.803 2.84757C128.153 2.12614 127.228 1.71429 126.257 1.71429ZM5.57921 0H126.257C127.713 0 129.101 0.617791 130.076 1.69993L168.679 44.557C170.442 46.5137 170.442 49.4863 168.679 51.443L130.076 94.3001C129.101 95.3822 127.713 96 126.257 96H5.57921C2.74008 96 0.438965 93.6975 0.438965 90.8571V5.14286C0.438965 2.30253 2.74008 0 5.57921 0Z" fill="black"/>
</g>
<script xmlns=""/></svg>