<svg xmlns="http://www.w3.org/2000/svg" width="171" height="96" viewBox="0 0 171 96" fill="none"><script xmlns=""/><script xmlns=""/>
<mask id="mask0_9_370" style="mask-type:alpha" maskUnits="userSpaceOnUse" x="0" y="0" width="171" height="96">
<path d="M126.427 0H5.74998C2.91086 0 0.609741 2.30253 0.609741 5.14286V90.8571C0.609741 93.6975 2.91086 96 5.74998 96H126.427C127.884 96 129.272 95.3822 130.247 94.3001L168.85 51.443C170.613 49.4863 170.613 46.5137 168.85 44.557L130.247 1.69993C129.272 0.617791 127.884 0 126.427 0Z" fill="#D9D9D9"/>
</mask>
<g mask="url(#mask0_9_370)">
<path d="M171.874 0H37.5493V96H171.874V0Z" fill="#52AE32"/>
<path d="M107.297 58.1249C107.297 59.9733 107.042 61.6473 106.533 63.1473C106.024 64.6473 105.315 65.9733 104.405 67.1249C103.521 68.2768 102.452 69.2678 101.192 70.0982C99.9604 70.9286 98.5965 71.6116 97.0955 72.1473C95.598 72.683 93.9908 73.0848 92.2774 73.3528C90.5914 73.5938 88.7032 73.7143 86.6146 73.7143H72.801C71.9169 73.7143 71.1681 73.4599 70.5513 72.9509C69.9636 72.4152 69.6689 71.5581 69.6689 70.3795V25.0581C69.6689 23.8795 69.9636 23.0357 70.5513 22.5268C71.1681 21.991 71.9169 21.7233 72.801 21.7233H85.8521C89.0373 21.7233 91.7291 21.991 93.924 22.5268C96.1463 23.0625 98.0071 23.8795 99.5063 24.9777C101.031 26.0491 102.196 27.4152 103 29.0758C103.804 30.7366 104.204 32.692 104.204 34.942C104.204 36.2009 104.043 37.3929 103.723 38.518C103.401 39.6161 102.933 40.6205 102.316 41.5313C101.701 42.442 100.939 43.2456 100.027 43.942C99.1448 44.6385 98.127 45.2009 96.9756 45.6295C98.4491 45.8973 99.801 46.3661 101.031 47.0357C102.291 47.7053 103.375 48.5758 104.285 49.6473C105.222 50.692 105.957 51.9242 106.494 53.3438C107.028 54.7634 107.297 56.3572 107.297 58.1249ZM93.643 36.2277C93.643 35.183 93.4819 34.2456 93.1615 33.4152C92.8394 32.5848 92.3579 31.9018 91.7154 31.3661C91.0729 30.8037 90.2556 30.3751 89.2652 30.0804C88.3023 29.7857 87.0035 29.6385 85.3706 29.6385H80.0299V43.1385H85.9326C87.4593 43.1385 88.6758 42.9643 89.5873 42.6161C90.4972 42.241 91.2459 41.7456 91.8354 41.1295C92.4522 40.4866 92.9062 39.75 93.2009 38.9196C93.4956 38.0625 93.643 37.1652 93.643 36.2277ZM96.3331 58.4866C96.3331 57.2813 96.1326 56.2099 95.7317 55.2724C95.329 54.3081 94.7413 53.5044 93.9634 52.8616C93.1872 52.2187 92.1969 51.7233 90.9923 51.3751C89.7878 51.0268 88.2217 50.8528 86.2942 50.8528H80.0299V65.6385H87.6597C89.1316 65.6385 90.3635 65.491 91.3539 65.1964C92.3716 64.8751 93.2403 64.4196 93.9634 63.8304C94.7139 63.2143 95.2896 62.4643 95.6905 61.5804C96.1189 60.6696 96.3331 59.6385 96.3331 58.4866Z" fill="white"/>
<path d="M39.0415 0H0.609741V96H39.0415V0Z" fill="white"/>
<path d="M30.9869 30.9309C31.1205 31.3325 31.2028 31.6507 31.237 31.885C31.2713 32.1194 31.225 32.298 31.1034 32.4207C30.98 32.5323 30.7624 32.5994 30.4506 32.6217C30.1388 32.6551 29.7087 32.6719 29.1621 32.6719C28.5933 32.6719 28.1478 32.6607 27.8239 32.6385C27.5121 32.6273 27.2722 32.5994 27.1043 32.5546C26.9364 32.4989 26.8199 32.4264 26.753 32.3371C26.6862 32.2478 26.6297 32.1305 26.5851 31.9855L25.1304 27.6327H16.9969L15.6261 31.8682C15.5816 32.0246 15.5199 32.1585 15.4411 32.2701C15.3743 32.3705 15.2577 32.4542 15.0898 32.5212C14.9339 32.5771 14.706 32.616 14.4045 32.6385C14.1149 32.6607 13.7294 32.6719 13.2496 32.6719C12.7356 32.6719 12.3347 32.6551 12.0451 32.6217C11.7555 32.5882 11.5533 32.5101 11.442 32.3873C11.3306 32.2534 11.2912 32.0691 11.3255 31.8348C11.358 31.6005 11.442 31.2879 11.5756 30.8973L18.2528 11.6786C18.3196 11.4888 18.3984 11.3382 18.4875 11.2266C18.5766 11.1038 18.7154 11.0145 18.9056 10.9587C19.1061 10.8918 19.3785 10.8527 19.7246 10.8415C20.0707 10.8192 20.5282 10.808 21.0971 10.808C21.755 10.808 22.2793 10.8192 22.67 10.8415C23.0606 10.8527 23.3622 10.8918 23.5729 10.9587C23.7974 11.0145 23.9533 11.1038 24.0424 11.2266C24.1418 11.3493 24.2258 11.5167 24.2926 11.7288L30.9869 30.9309ZM21.0474 15.0435H21.0302L17.9684 24.2511H24.1092L21.0474 15.0435Z" fill="black"/>
<path d="M30.6185 69.1306C30.6185 69.4543 30.6013 69.7332 30.5671 69.9677C30.5448 70.202 30.5071 70.3916 30.4506 70.5368C30.406 70.6707 30.3443 70.7655 30.2672 70.8214C30.2004 70.8773 30.1164 70.9051 30.0154 70.9051C29.8697 70.9051 29.6367 70.8046 29.3128 70.6037C28.989 70.403 28.5589 70.1852 28.0244 69.9509C27.4898 69.7166 26.8472 69.4989 26.1002 69.2979C25.3634 69.097 24.505 68.9966 23.5232 68.9966C22.4746 68.9966 21.5271 69.1809 20.679 69.5491C19.8308 69.9062 19.106 70.4196 18.5029 71.0894C17.9015 71.7478 17.4389 72.5458 17.115 73.4832C16.7912 74.4096 16.6302 75.4365 16.6302 76.5636C16.6302 77.8025 16.7912 78.8962 17.115 79.8449C17.4492 80.7823 17.9118 81.5691 18.5029 82.2053C19.094 82.8415 19.8034 83.3215 20.6293 83.6451C21.4654 83.9688 22.3855 84.1306 23.3896 84.1306C23.8796 84.1306 24.3662 84.0747 24.846 83.9631C25.324 83.8515 25.7712 83.6842 26.1841 83.4608V78.4387H22.084C21.8835 78.4387 21.7276 78.3158 21.6162 78.0703C21.5048 77.8136 21.4483 77.3839 21.4483 76.7813C21.4483 76.4688 21.4603 76.2065 21.4826 75.9944C21.5151 75.7824 21.5596 75.6149 21.6162 75.4922C21.671 75.3583 21.7378 75.2633 21.8167 75.2076C21.8955 75.1406 21.9846 75.1071 22.084 75.1071H29.3968C29.575 75.1071 29.7309 75.1406 29.8646 75.2076C30.0102 75.2633 30.1319 75.3526 30.233 75.4754C30.3443 75.5983 30.4283 75.7488 30.4848 75.9274C30.5397 76.0949 30.5671 76.2902 30.5671 76.5134V85.135C30.5671 85.4698 30.5071 85.7655 30.3837 86.0223C30.2724 86.2678 30.0325 86.4631 29.6641 86.6083C29.3077 86.7533 28.8605 86.904 28.3259 87.0603C27.7896 87.2165 27.2328 87.3504 26.6519 87.462C26.0831 87.5736 25.5039 87.6574 24.9128 87.7131C24.332 87.769 23.746 87.7968 23.1548 87.7968C21.426 87.7968 19.8754 87.5513 18.5029 87.0603C17.1425 86.558 15.9876 85.8382 15.0401 84.9007C14.0909 83.952 13.3661 82.8024 12.8641 81.452C12.362 80.0904 12.1119 78.5503 12.1119 76.8315C12.1119 75.0569 12.3792 73.4666 12.9155 72.0603C13.4501 70.6428 14.2091 69.4431 15.1909 68.4609C16.1727 67.4676 17.3549 66.7087 18.7377 66.1841C20.1324 65.6595 21.683 65.3972 23.3896 65.3972C24.3268 65.3972 25.1801 65.4643 25.9494 65.5982C26.7187 65.7209 27.3887 65.8772 27.9575 66.067C28.5367 66.2455 29.0164 66.4409 29.3968 66.653C29.7755 66.865 30.0376 67.0491 30.1833 67.2053C30.3392 67.3616 30.4506 67.5848 30.5174 67.8751C30.5842 68.154 30.6185 68.5726 30.6185 69.1306Z" fill="black"/>
<path d="M29.1449 46.9289L21.0405 38.2533L12.9155 46.9512L15.1549 49.3471L19.459 44.7391V57.4138H22.6237V44.7391L26.9072 49.3252L29.1449 46.9289Z" fill="black"/>
<path fill-rule="evenodd" clip-rule="evenodd" d="M126.427 1.71429H5.74998C3.85666 1.71429 2.32316 3.24931 2.32316 5.14286V90.8571C2.32316 92.7507 3.85666 94.2857 5.74998 94.2857H126.427C127.399 94.2857 128.324 93.8739 128.974 93.1524L167.577 50.2953C168.752 48.9909 168.752 47.0091 167.577 45.7047L128.974 2.84757C128.324 2.12614 127.399 1.71429 126.427 1.71429ZM5.74998 0H126.427C127.884 0 129.272 0.617791 130.247 1.69993L168.85 44.557C170.613 46.5137 170.613 49.4863 168.85 51.443L130.247 94.3001C129.272 95.3822 127.884 96 126.427 96H5.74998C2.91086 96 0.609741 93.6975 0.609741 90.8571V5.14286C0.609741 2.30253 2.91086 0 5.74998 0Z" fill="black"/>
</g>
<script xmlns=""/></svg>