<svg xmlns="http://www.w3.org/2000/svg" width="171" height="96" viewBox="0 0 171 96" fill="none"><script xmlns=""/><script xmlns=""/>
<mask id="mask0_9_425" style="mask-type:alpha" maskUnits="userSpaceOnUse" x="0" y="0" width="171" height="96">
<path d="M126.476 0H5.79869C2.95956 0 0.658447 2.30253 0.658447 5.14286V90.8571C0.658447 93.6975 2.95956 96 5.79869 96H126.476C127.933 96 129.32 95.3822 130.295 94.3001L168.899 51.443C170.662 49.4863 170.662 46.5137 168.899 44.557L130.295 1.69993C129.32 0.617791 127.933 0 126.476 0Z" fill="#D9D9D9"/>
</mask>
<g mask="url(#mask0_9_425)">
<path d="M171.922 0H37.598V96H171.922V0Z" fill="#E30613"/>
<path d="M111.402 29.7991C111.402 30.5758 111.361 31.2456 111.28 31.8081C111.227 32.3705 111.134 32.8258 110.999 33.1742C110.893 33.4956 110.745 33.7233 110.559 33.8571C110.398 33.991 110.197 34.0581 109.956 34.0581C109.608 34.0581 109.046 33.817 108.27 33.3348C107.493 32.8527 106.462 32.3304 105.177 31.7678C103.892 31.2053 102.353 30.683 100.559 30.2009C98.791 29.7187 96.7298 29.4777 94.3738 29.4777C91.8585 29.4777 89.5814 29.9196 87.5475 30.8037C85.512 31.6608 83.7729 32.8929 82.3268 34.5C80.8807 36.0804 79.7704 37.9956 78.9942 40.2456C78.218 42.4687 77.8291 44.933 77.8291 47.6385C77.8291 50.6115 78.218 53.2366 78.9942 55.5134C79.7978 57.7634 80.9081 59.6518 82.3268 61.1786C83.7455 62.7053 85.4452 63.8571 87.4276 64.6339C89.434 65.4106 91.6443 65.7991 94.0534 65.7991C95.2305 65.7991 96.3956 65.6652 97.547 65.3973C98.6984 65.1295 99.7693 64.7277 100.76 64.1919V52.1385H90.9213C90.4381 52.1385 90.0646 51.8438 89.7956 51.2544C89.5283 50.6385 89.3946 49.6071 89.3946 48.1608C89.3946 47.4106 89.422 46.7813 89.4751 46.2723C89.5557 45.7634 89.6619 45.3615 89.7956 45.067C89.9309 44.7456 90.0902 44.5179 90.2787 44.3839C90.4655 44.2233 90.6797 44.1429 90.9213 44.1429H108.47C108.898 44.1429 109.274 44.2233 109.594 44.3839C109.942 44.5179 110.237 44.7322 110.478 45.0267C110.745 45.3214 110.946 45.683 111.08 46.1115C111.213 46.5134 111.28 46.9821 111.28 47.5179V68.2099C111.28 69.0134 111.134 69.7233 110.84 70.3392C110.571 70.9286 109.995 71.3973 109.113 71.7456C108.256 72.0938 107.185 72.4553 105.9 72.8304C104.615 73.2053 103.277 73.5267 101.884 73.7947C100.518 74.0625 99.1268 74.2634 97.7081 74.3973C96.3151 74.5313 94.9101 74.5982 93.4914 74.5982C89.3415 74.5982 85.62 74.009 82.3268 72.8304C79.061 71.6249 76.2904 69.8973 74.0133 67.6473C71.7379 65.3705 69.9987 62.6115 68.7942 59.3705C67.588 56.1027 66.9866 52.4062 66.9866 48.2813C66.9866 44.0223 67.6291 40.2053 68.9142 36.8304C70.1992 33.4286 72.0189 30.5491 74.3748 28.1919C76.7308 25.8081 79.5699 23.9866 82.8888 22.7277C86.2351 21.4687 89.9566 20.8392 94.0534 20.8392C96.3014 20.8392 98.3506 21 100.198 21.3214C102.045 21.6161 103.65 21.991 105.016 22.4465C106.409 22.8751 107.56 23.3438 108.47 23.8527C109.38 24.3615 110.009 24.8037 110.357 25.1786C110.732 25.5535 110.999 26.0894 111.16 26.7857C111.321 27.4553 111.402 28.4599 111.402 29.7991Z" fill="white"/>
<path d="M39.0901 0H0.658447V96H39.0901V0Z" fill="white"/>
<path d="M31.0357 30.9309C31.1693 31.3325 31.2516 31.6507 31.2858 31.885C31.3201 32.1194 31.2738 32.298 31.1522 32.4207C31.0288 32.5323 30.8112 32.5994 30.4994 32.6217C30.1876 32.6551 29.7575 32.6719 29.2109 32.6719C28.642 32.6719 28.1965 32.6607 27.8727 32.6385C27.5609 32.6273 27.321 32.5994 27.1531 32.5546C26.9852 32.4989 26.8686 32.4264 26.8018 32.3371C26.735 32.2478 26.6784 32.1305 26.6339 31.9855L25.1792 27.6327H17.0457L15.6749 31.8682C15.6303 32.0246 15.5687 32.1585 15.4899 32.2701C15.423 32.3705 15.3065 32.4542 15.1386 32.5212C14.9827 32.5771 14.7548 32.616 14.4533 32.6385C14.1637 32.6607 13.7782 32.6719 13.2984 32.6719C12.7844 32.6719 12.3835 32.6551 12.0939 32.6217C11.8043 32.5882 11.6022 32.5101 11.4908 32.3873C11.3794 32.2534 11.34 32.0691 11.3743 31.8348C11.4068 31.6005 11.4908 31.2879 11.6244 30.8973L18.3016 11.6786C18.3684 11.4888 18.4472 11.3382 18.5363 11.2266C18.6254 11.1038 18.7642 11.0145 18.9543 10.9587C19.1548 10.8918 19.4273 10.8527 19.7734 10.8415C20.1195 10.8192 20.5769 10.808 21.1458 10.808C21.8037 10.808 22.3281 10.8192 22.7188 10.8415C23.1094 10.8527 23.4109 10.8918 23.6217 10.9587C23.8461 11.0145 24.0021 11.1038 24.0912 11.2266C24.1906 11.3493 24.2746 11.5167 24.3414 11.7288L31.0357 30.9309ZM21.0961 15.0435H21.0791L18.0171 24.2511H24.1581L21.0961 15.0435Z" fill="black"/>
<path d="M30.6673 69.1306C30.6673 69.4543 30.6502 69.7332 30.6159 69.9677C30.5937 70.202 30.556 70.3916 30.4994 70.5368C30.4549 70.6707 30.3932 70.7655 30.3161 70.8214C30.2493 70.8773 30.1653 70.9051 30.0642 70.9051C29.9186 70.9051 29.6856 70.8046 29.3617 70.6037C29.0379 70.403 28.6078 70.1852 28.0732 69.9509C27.5386 69.7166 26.8961 69.4989 26.1491 69.2979C25.4123 69.097 24.5538 68.9966 23.5721 68.9966C22.5235 68.9966 21.576 69.1809 20.7278 69.5491C19.8797 69.9062 19.1549 70.4196 18.5518 71.0894C17.9504 71.7478 17.4877 72.5458 17.1639 73.4832C16.8401 74.4096 16.679 75.4365 16.679 76.5636C16.679 77.8025 16.8401 78.8962 17.1639 79.8449C17.498 80.7823 17.9606 81.5691 18.5518 82.2053C19.1429 82.8415 19.8523 83.3215 20.6782 83.6451C21.5143 83.9688 22.4344 84.1306 23.4384 84.1306C23.9284 84.1306 24.4151 84.0747 24.8949 83.9631C25.3729 83.8515 25.8201 83.6842 26.2331 83.4608V78.4387H22.1329C21.9324 78.4387 21.7764 78.3158 21.6651 78.0703C21.5537 77.8136 21.4971 77.3839 21.4971 76.7813C21.4971 76.4688 21.5091 76.2065 21.5314 75.9944C21.564 75.7824 21.6085 75.6149 21.6651 75.4922C21.7199 75.3583 21.7867 75.2633 21.8656 75.2076C21.9444 75.1406 22.0335 75.1071 22.1329 75.1071H29.4457C29.6239 75.1071 29.7797 75.1406 29.9134 75.2076C30.059 75.2633 30.1807 75.3526 30.2818 75.4754C30.3932 75.5983 30.4771 75.7488 30.5336 75.9274C30.5885 76.0949 30.6159 76.2902 30.6159 76.5134V85.135C30.6159 85.4698 30.556 85.7655 30.4326 86.0223C30.3213 86.2678 30.0813 86.4631 29.7129 86.6083C29.3565 86.7533 28.9094 86.904 28.3748 87.0603C27.8385 87.2165 27.2816 87.3504 26.7007 87.462C26.1319 87.5736 25.5528 87.6574 24.9617 87.7131C24.3809 87.769 23.7949 87.7968 23.2037 87.7968C21.4749 87.7968 19.9242 87.5513 18.5518 87.0603C17.1913 86.558 16.0365 85.8382 15.089 84.9007C14.1397 83.952 13.4149 82.8024 12.9129 81.452C12.4109 80.0904 12.1608 78.5503 12.1608 76.8315C12.1608 75.0569 12.428 73.4666 12.9643 72.0603C13.4989 70.6428 14.258 69.4431 15.2398 68.4609C16.2216 67.4676 17.4038 66.7087 18.7865 66.1841C20.1813 65.6595 21.7318 65.3972 23.4384 65.3972C24.3756 65.3972 25.229 65.4643 25.9983 65.5982C26.7676 65.7209 27.4375 65.8772 28.0064 66.067C28.5855 66.2455 29.0653 66.4409 29.4457 66.653C29.8244 66.865 30.0865 67.0491 30.2321 67.2053C30.3881 67.3616 30.4995 67.5848 30.5663 67.8751C30.6331 68.154 30.6673 68.5726 30.6673 69.1306Z" fill="black"/>
<path d="M29.1937 46.9289L21.0893 38.2533L12.9642 46.9512L15.2037 49.3471L19.5077 44.7391V57.4138H22.6725V44.7391L26.956 49.3252L29.1937 46.9289Z" fill="black"/>
<path fill-rule="evenodd" clip-rule="evenodd" d="M126.476 1.71429H5.79869C3.90537 1.71429 2.37186 3.24931 2.37186 5.14286V90.8571C2.37186 92.7507 3.90537 94.2857 5.79869 94.2857H126.476C127.448 94.2857 128.373 93.8739 129.022 93.1524L167.626 50.2953C168.801 48.9909 168.801 47.0091 167.626 45.7047L129.022 2.84757C128.373 2.12614 127.448 1.71429 126.476 1.71429ZM5.79869 0H126.476C127.933 0 129.32 0.617791 130.295 1.69993L168.899 44.557C170.662 46.5137 170.662 49.4863 168.899 51.443L130.295 94.3001C129.32 95.3822 127.933 96 126.476 96H5.79869C2.95956 96 0.658447 93.6975 0.658447 90.8571V5.14286C0.658447 2.30253 2.95956 0 5.79869 0Z" fill="black"/>
</g>
<script xmlns=""/></svg>