<svg xmlns="http://www.w3.org/2000/svg" width="170" height="96" viewBox="0 0 170 96" fill="none"><script xmlns=""/><script xmlns=""/>
<mask id="mask0_9_381" style="mask-type:alpha" maskUnits="userSpaceOnUse" x="0" y="0" width="170" height="96">
<path d="M126.037 0H5.35973C2.5206 0 0.219482 2.30253 0.219482 5.14286V90.8571C0.219482 93.6975 2.5206 96 5.35973 96H126.037C127.494 96 128.881 95.3822 129.856 94.3001L168.46 51.443C170.223 49.4863 170.223 46.5137 168.46 44.557L129.856 1.69993C128.881 0.617791 127.494 0 126.037 0Z" fill="#D9D9D9"/>
</mask>
<g mask="url(#mask0_9_381)">
<path d="M171.484 0H37.159V96H171.484V0Z" fill="#C8D400"/>
<path d="M105.219 65.8392C105.219 66.509 105.194 67.0848 105.139 67.567C105.113 68.0223 105.06 68.4242 104.979 68.7723C104.899 69.0938 104.791 69.3751 104.657 69.6161C104.524 69.8571 104.309 70.1385 104.015 70.4599C103.72 70.7544 103.144 71.1429 102.288 71.6249C101.458 72.1071 100.427 72.5758 99.1966 73.0313C97.9903 73.4599 96.5991 73.8214 95.0193 74.1161C93.467 74.4106 91.7809 74.5581 89.9596 74.5581C86.3991 74.5581 83.1865 74.009 80.3216 72.9106C77.4568 71.8125 75.0203 70.1786 73.0122 68.009C71.0041 65.8125 69.4654 63.0804 68.3946 59.8125C67.3237 56.5447 66.7891 52.741 66.7891 48.4018C66.7891 43.9821 67.3768 40.0581 68.5556 36.6295C69.7327 33.2009 71.3793 30.3214 73.4954 27.991C75.6097 25.6608 78.1405 23.8929 81.0841 22.6875C84.0569 21.4821 87.3226 20.8795 90.8831 20.8795C92.3292 20.8795 93.7205 21 95.0604 21.241C96.3986 21.4821 97.6305 21.8037 98.7545 22.2053C99.906 22.5804 100.936 23.0223 101.846 23.5313C102.757 24.0401 103.386 24.4821 103.734 24.8571C104.109 25.2053 104.363 25.5 104.496 25.741C104.632 25.9821 104.738 26.2901 104.818 26.6652C104.899 27.0401 104.952 27.4821 104.979 27.991C105.032 28.5 105.06 29.1295 105.06 29.8795C105.06 30.683 105.032 31.3661 104.979 31.9286C104.925 32.491 104.832 32.9465 104.698 33.2947C104.563 33.6429 104.404 33.8973 104.215 34.0581C104.028 34.2187 103.814 34.2991 103.573 34.2991C103.172 34.2991 102.663 34.0714 102.048 33.6161C101.431 33.1339 100.629 32.6115 99.637 32.0491C98.674 31.4599 97.5089 30.9375 96.1433 30.4821C94.8051 30 93.1996 29.759 91.3252 29.759C89.2639 29.759 87.4169 30.1875 85.784 31.0447C84.1768 31.8751 82.7975 33.0804 81.6461 34.6608C80.5221 36.2143 79.6654 38.1027 79.076 40.3258C78.4883 42.5491 78.1936 45.0535 78.1936 47.8392C78.1936 50.8929 78.502 53.5447 79.1171 55.7947C79.7596 58.0179 80.6558 59.8527 81.8072 61.2991C82.986 62.7456 84.391 63.8304 86.0239 64.5535C87.6842 65.25 89.5449 65.5982 91.6062 65.5982C93.4807 65.5982 95.0998 65.3839 96.4654 64.9553C97.831 64.5 98.9944 64.0044 99.9591 63.4687C100.949 62.933 101.753 62.4509 102.368 62.0223C103.011 61.5938 103.506 61.3795 103.854 61.3795C104.123 61.3795 104.337 61.433 104.496 61.5401C104.657 61.6473 104.791 61.8615 104.899 62.183C105.005 62.5044 105.086 62.9599 105.139 63.5491C105.194 64.1115 105.219 64.8751 105.219 65.8392Z" fill="white"/>
<path d="M38.6512 0H0.219482V96H38.6512V0Z" fill="white"/>
<path d="M30.5966 30.9309C30.7303 31.3325 30.8125 31.6507 30.8468 31.885C30.8811 32.1194 30.8348 32.298 30.7131 32.4207C30.5898 32.5323 30.3721 32.5994 30.0603 32.6217C29.7485 32.6551 29.3184 32.6719 28.7718 32.6719C28.203 32.6719 27.7575 32.6607 27.4337 32.6385C27.1218 32.6273 26.8819 32.5994 26.714 32.5546C26.5461 32.4989 26.4296 32.4264 26.3628 32.3371C26.296 32.2478 26.2394 32.1305 26.1949 31.9855L24.7402 27.6327H16.6066L15.2359 31.8682C15.1913 32.0246 15.1296 32.1585 15.0508 32.2701C14.984 32.3705 14.8675 32.4542 14.6996 32.5212C14.5437 32.5771 14.3158 32.616 14.0142 32.6385C13.7246 32.6607 13.3391 32.6719 12.8594 32.6719C12.3453 32.6719 11.9444 32.6551 11.6548 32.6217C11.3653 32.5882 11.1631 32.5101 11.0517 32.3873C10.9403 32.2534 10.9009 32.0691 10.9352 31.8348C10.9677 31.6005 11.0517 31.2879 11.1853 30.8973L17.8625 11.6786C17.9293 11.4888 18.0082 11.3382 18.0973 11.2266C18.1864 11.1038 18.3251 11.0145 18.5153 10.9587C18.7158 10.8918 18.9883 10.8527 19.3344 10.8415C19.6805 10.8192 20.1379 10.808 20.7068 10.808C21.3648 10.808 21.8891 10.8192 22.2797 10.8415C22.6704 10.8527 22.9719 10.8918 23.1827 10.9587C23.4071 11.0145 23.5631 11.1038 23.6522 11.2266C23.7515 11.3493 23.8355 11.5167 23.9023 11.7288L30.5966 30.9309ZM20.6571 15.0435H20.64L17.5781 24.2511H23.719L20.6571 15.0435Z" fill="black"/>
<path d="M30.2282 69.1306C30.2282 69.4543 30.2111 69.7332 30.1768 69.9677C30.1546 70.202 30.1168 70.3916 30.0603 70.5368C30.0157 70.6707 29.9541 70.7655 29.8769 70.8214C29.8101 70.8773 29.7262 70.9051 29.6251 70.9051C29.4794 70.9051 29.2465 70.8046 28.9226 70.6037C28.5988 70.403 28.1687 70.1852 27.6341 69.9509C27.0995 69.7166 26.457 69.4989 25.7099 69.2979C24.9732 69.097 24.1148 68.9966 23.133 68.9966C22.0844 68.9966 21.1368 69.1809 20.2887 69.5491C19.4406 69.9062 18.7158 70.4196 18.1126 71.0894C17.5112 71.7478 17.0486 72.5458 16.7248 73.4832C16.401 74.4096 16.2399 75.4365 16.2399 76.5636C16.2399 77.8025 16.401 78.8962 16.7248 79.8449C17.0589 80.7823 17.5215 81.5691 18.1126 82.2053C18.7038 82.8415 19.4132 83.3215 20.239 83.6451C21.0752 83.9688 21.9953 84.1306 22.9993 84.1306C23.4894 84.1306 23.976 84.0747 24.4557 83.9631C24.9338 83.8515 25.381 83.6842 25.7939 83.4608V78.4387H21.6937C21.4932 78.4387 21.3373 78.3158 21.2259 78.0703C21.1146 77.8136 21.058 77.3839 21.058 76.7813C21.058 76.4688 21.07 76.2065 21.0923 75.9944C21.1249 75.7824 21.1694 75.6149 21.2259 75.4922C21.2808 75.3583 21.3476 75.2633 21.4264 75.2076C21.5052 75.1406 21.5943 75.1071 21.6937 75.1071H29.0065C29.1847 75.1071 29.3407 75.1406 29.4743 75.2076C29.62 75.2633 29.7416 75.3526 29.8427 75.4754C29.9541 75.5983 30.038 75.7488 30.0946 75.9274C30.1494 76.0949 30.1768 76.2902 30.1768 76.5134V85.135C30.1768 85.4698 30.1169 85.7655 29.9935 86.0223C29.8821 86.2678 29.6422 86.4631 29.2738 86.6083C28.9175 86.7533 28.4702 86.904 27.9357 87.0603C27.3994 87.2165 26.8425 87.3504 26.2617 87.462C25.6928 87.5736 25.1137 87.6574 24.5226 87.7131C23.9417 87.769 23.3557 87.7968 22.7646 87.7968C21.0358 87.7968 19.4851 87.5513 18.1126 87.0603C16.7522 86.558 15.5974 85.8382 14.6498 84.9007C13.7006 83.952 12.9758 82.8024 12.4738 81.452C11.9718 80.0904 11.7216 78.5503 11.7216 76.8315C11.7216 75.0569 11.9889 73.4666 12.5252 72.0603C13.0598 70.6428 13.8188 69.4431 14.8006 68.4609C15.7824 67.4676 16.9647 66.7087 18.3474 66.1841C19.7421 65.6595 21.2928 65.3972 22.9993 65.3972C23.9366 65.3972 24.7898 65.4643 25.5592 65.5982C26.3285 65.7209 26.9984 65.8772 27.5673 66.067C28.1464 66.2455 28.6262 66.4409 29.0065 66.653C29.3852 66.865 29.6474 67.0491 29.793 67.2053C29.9489 67.3616 30.0603 67.5848 30.1271 67.8751C30.1939 68.154 30.2282 68.5726 30.2282 69.1306Z" fill="black"/>
<path d="M28.7546 46.9289L20.6502 38.2533L12.5252 46.9512L14.7646 49.3471L19.0687 44.7391V57.4138H22.2334V44.7391L26.517 49.3252L28.7546 46.9289Z" fill="black"/>
<path fill-rule="evenodd" clip-rule="evenodd" d="M126.037 1.71429H5.35973C3.4664 1.71429 1.9329 3.24931 1.9329 5.14286V90.8571C1.9329 92.7507 3.4664 94.2857 5.35973 94.2857H126.037C127.009 94.2857 127.934 93.8739 128.583 93.1524L167.187 50.2953C168.362 48.9909 168.362 47.0091 167.187 45.7047L128.583 2.84757C127.934 2.12614 127.009 1.71429 126.037 1.71429ZM5.35973 0H126.037C127.494 0 128.881 0.617791 129.856 1.69993L168.46 44.557C170.223 46.5137 170.223 49.4863 168.46 51.443L129.856 94.3001C128.881 95.3822 127.494 96 126.037 96H5.35973C2.5206 96 0.219482 93.6975 0.219482 90.8571V5.14286C0.219482 2.30253 2.5206 0 5.35973 0Z" fill="black"/>
</g>
<script xmlns=""/></svg>