<svg width="20" height="18" viewBox="0 0 20 18" fill="none" xmlns="http://www.w3.org/2000/svg">
<path d="M5.66661 17H14.5555M10.1111 1V17M2.11106 4.55556H3.88883C5.66661 4.55556 8.33328 3.66667 10.1111 2.77778C11.8888 3.66667 14.5555 4.55556 16.3333 4.55556H18.1111M13.6666 12.5556L16.3333 5.44444L18.9999 12.5556C18.2266 13.1333 17.2933 13.4444 16.3333 13.4444C15.3733 13.4444 14.4399 13.1333 13.6666 12.5556ZM1.22217 12.5556L3.88883 5.44444L6.5555 12.5556C5.78217 13.1333 4.84883 13.4444 3.88883 13.4444C2.92883 13.4444 1.9955 13.1333 1.22217 12.5556Z" stroke="#B8B8B8" stroke-linecap="round" stroke-linejoin="round"/>
</svg>
