<svg width="23" height="22" viewBox="0 0 23 22" fill="none" xmlns="http://www.w3.org/2000/svg">
<path d="M7.90991 20.975C8.4622 20.975 8.90991 20.5273 8.90991 19.975C8.90991 19.4227 8.4622 18.975 7.90991 18.975C7.35763 18.975 6.90991 19.4227 6.90991 19.975C6.90991 20.5273 7.35763 20.975 7.90991 20.975Z" stroke="black" stroke-width="2" stroke-linecap="round" stroke-linejoin="round"/>
<path d="M18.9099 20.975C19.4622 20.975 19.9099 20.5273 19.9099 19.975C19.9099 19.4227 19.4622 18.975 18.9099 18.975C18.3576 18.975 17.9099 19.4227 17.9099 19.975C17.9099 20.5273 18.3576 20.975 18.9099 20.975Z" stroke="black" stroke-width="2" stroke-linecap="round" stroke-linejoin="round"/>
<path d="M1.95996 1.02499H3.95996L6.61996 13.445C6.71754 13.8999 6.97063 14.3065 7.33567 14.5949C7.70071 14.8832 8.15487 15.0353 8.61996 15.025H18.4C18.8551 15.0243 19.2964 14.8683 19.651 14.5828C20.0055 14.2974 20.2521 13.8995 20.35 13.455L22 6.02499H5.02996" stroke="black" stroke-width="2" stroke-linecap="round" stroke-linejoin="round"/>
</svg>
