<svg width="205" height="26" viewBox="0 0 205 26" fill="none" xmlns="http://www.w3.org/2000/svg">
<path d="M191.811 15.816C191.811 18.1769 191.989 19.8195 192.344 20.744C192.714 21.6684 193.354 22.1307 194.264 22.1307C194.933 22.1307 195.438 21.9671 195.779 21.64C196.12 21.2987 196.376 20.6089 196.547 19.5707C196.732 18.5182 196.824 16.9467 196.824 14.856V9.71466C196.824 7.68088 196.625 6.16621 196.227 5.17066C195.829 4.1751 195.175 3.67732 194.264 3.67732C193.354 3.67732 192.714 4.16799 192.344 5.14932C191.989 6.11644 191.811 7.8871 191.811 10.4613V15.816ZM193.816 25.928C192.636 25.928 191.569 25.8213 190.616 25.608C189.678 25.3947 188.867 25.096 188.184 24.712C187.502 24.328 186.904 23.8373 186.392 23.24C185.895 22.6427 185.489 22.0027 185.176 21.32C184.878 20.6373 184.636 19.8409 184.451 18.9307C184.266 18.0062 184.138 17.0889 184.067 16.1787C183.996 15.2542 183.96 14.216 183.96 13.064C183.96 11.3573 184.046 9.8711 184.216 8.60532C184.401 7.33955 184.736 6.15199 185.219 5.04266C185.703 3.9191 186.343 3.00888 187.139 2.31199C187.95 1.6151 188.988 1.06755 190.254 0.669323C191.534 0.271102 193.041 0.071991 194.776 0.071991C195.971 0.071991 197.045 0.185769 197.998 0.413324C198.951 0.626657 199.768 0.925324 200.451 1.30932C201.134 1.69332 201.724 2.1911 202.222 2.80266C202.734 3.41421 203.139 4.06843 203.438 4.76532C203.751 5.44799 204 6.25155 204.184 7.17599C204.369 8.10043 204.497 9.01777 204.568 9.92799C204.64 10.8382 204.675 11.8693 204.675 13.0213C204.675 14.728 204.583 16.2142 204.398 17.48C204.213 18.7458 203.879 19.9333 203.395 21.0427C202.912 22.1378 202.264 23.0338 201.454 23.7307C200.643 24.4133 199.598 24.9538 198.318 25.352C197.052 25.736 195.552 25.928 193.816 25.928Z" fill="black"/>
<path d="M174.393 25.48V0.477325H181.668V25.48H174.393Z" fill="black"/>
<path d="M157.988 25.48H151.204V2.48266L150.159 0.477325H158.009L161.935 8.58399L165.689 16.6693L164.644 7.17599V0.477325H171.449V25.48H164.943L159.865 15.6027L156.729 9.41599L157.988 17.608V25.48Z" fill="black"/>
<path d="M141.018 25.48V0.477325H148.293V25.48H141.018Z" fill="black"/>
<path d="M127.348 17.16V25.48H120.265V0.477324H123.081C123.764 0.477324 124.78 0.448879 126.132 0.391991C127.483 0.32088 128.599 0.285324 129.481 0.285324C132.553 0.285324 134.843 0.96088 136.35 2.31199C137.872 3.6631 138.633 5.73244 138.633 8.51999C138.633 10.1698 138.27 11.6347 137.545 12.9147C136.834 14.1947 135.888 15.2115 134.708 15.9653C135.348 16.1218 135.895 16.4844 136.35 17.0533C136.82 17.6222 137.182 18.2978 137.438 19.08C137.694 19.848 137.915 20.6302 138.1 21.4267C138.299 22.2089 138.519 22.984 138.761 23.752C139.017 24.52 139.294 25.096 139.593 25.48H131.721C131.564 25.2809 131.444 24.7262 131.358 23.816C131.273 22.8915 131.152 21.7893 130.996 20.5093C130.853 19.2151 130.647 18.1342 130.377 17.2667C130.348 17.2667 130.313 17.2667 130.27 17.2667C130 17.2667 129.708 17.2667 129.396 17.2667C129.097 17.2524 128.834 17.2382 128.606 17.224C128.379 17.2098 128.137 17.1955 127.881 17.1813C127.639 17.1671 127.461 17.16 127.348 17.16ZM127.348 13.192H128.03C128.386 13.192 128.684 13.1778 128.926 13.1493C129.168 13.1209 129.431 13.0711 129.716 13C130.014 12.9147 130.256 12.7867 130.441 12.616C130.64 12.4453 130.825 12.2249 130.996 11.9547C131.166 11.6844 131.294 11.336 131.38 10.9093C131.465 10.4827 131.508 9.98488 131.508 9.41599V7.73066C131.508 6.49332 131.18 5.63288 130.526 5.14932C129.886 4.65155 128.962 4.40266 127.753 4.40266H127.348V13.192Z" fill="black"/>
<path d="M118.392 25.48H103.267V0.477325H118.072L117.645 5.51199L110.328 5.29866V10.12H116.088V15.112L110.328 14.6853V20.36L118.392 20.1467V25.48Z" fill="black"/>
<path d="M90.3279 25.48H83.2666V0.477324H86.0826C86.8364 0.477324 87.9742 0.448879 89.4959 0.391991C91.0177 0.32088 92.2693 0.285324 93.2506 0.285324C96.0097 0.285324 98.1004 1.01777 99.5226 2.48266C100.945 3.94755 101.656 6.14488 101.656 9.07466C101.656 10.8382 101.421 12.4453 100.952 13.896C100.497 15.3324 99.8782 16.5129 99.0959 17.4373C98.3137 18.3618 97.4248 19.0729 96.4293 19.5707C95.4337 20.0684 94.3813 20.3173 93.2719 20.3173C93.1297 20.3173 92.9804 20.3173 92.8239 20.3173C92.6817 20.3173 92.5466 20.3173 92.4186 20.3173C92.3048 20.3031 92.1626 20.296 91.9919 20.296C91.8355 20.2818 91.7075 20.2747 91.6079 20.2747C91.5226 20.2604 91.3946 20.2533 91.2239 20.2533C91.0675 20.2391 90.9608 20.232 90.9039 20.232C90.847 20.232 90.7404 20.2249 90.5839 20.2107C90.4275 20.1964 90.3422 20.1893 90.3279 20.1893V25.48ZM94.6586 8.13599C94.6586 7.08355 94.3742 6.23021 93.8053 5.57599C93.2364 4.92177 92.4186 4.59466 91.3519 4.59466H90.3279V15.688H91.1173C92.2408 15.688 93.1084 15.3111 93.7199 14.5573C94.3457 13.8035 94.6586 12.7155 94.6586 11.2933V8.13599Z" fill="black"/>
<path d="M70.3278 25.48H63.2665V0.477324H66.0825C66.8363 0.477324 67.974 0.448879 69.4958 0.391991C71.0176 0.32088 72.2691 0.285324 73.2505 0.285324C76.0096 0.285324 78.1003 1.01777 79.5225 2.48266C80.9447 3.94755 81.6558 6.14488 81.6558 9.07466C81.6558 10.8382 81.4212 12.4453 80.9518 13.896C80.4967 15.3324 79.878 16.5129 79.0958 17.4373C78.3136 18.3618 77.4247 19.0729 76.4291 19.5707C75.4336 20.0684 74.3811 20.3173 73.2718 20.3173C73.1296 20.3173 72.9803 20.3173 72.8238 20.3173C72.6816 20.3173 72.5465 20.3173 72.4185 20.3173C72.3047 20.3031 72.1625 20.296 71.9918 20.296C71.8354 20.2818 71.7074 20.2747 71.6078 20.2747C71.5225 20.2604 71.3945 20.2533 71.2238 20.2533C71.0674 20.2391 70.9607 20.232 70.9038 20.232C70.8469 20.232 70.7403 20.2249 70.5838 20.2107C70.4274 20.1964 70.342 20.1893 70.3278 20.1893V25.48ZM74.6585 8.13599C74.6585 7.08355 74.374 6.23021 73.8051 5.57599C73.2363 4.92177 72.4185 4.59466 71.3518 4.59466H70.3278V15.688H71.1171C72.2407 15.688 73.1083 15.3111 73.7198 14.5573C74.3456 13.8035 74.6585 12.7155 74.6585 11.2933V8.13599Z" fill="black"/>
<path d="M48.186 15.816C48.186 18.1769 48.3638 19.8195 48.7193 20.744C49.0891 21.6684 49.7291 22.1307 50.6393 22.1307C51.3078 22.1307 51.8127 21.9671 52.154 21.64C52.4953 21.2987 52.7513 20.6089 52.922 19.5707C53.1069 18.5182 53.1993 16.9467 53.1993 14.856V9.71466C53.1993 7.68088 53.0002 6.16621 52.602 5.17066C52.2038 4.1751 51.5496 3.67732 50.6393 3.67732C49.7291 3.67732 49.0891 4.16799 48.7193 5.14932C48.3638 6.11644 48.186 7.8871 48.186 10.4613V15.816ZM50.1913 25.928C49.0109 25.928 47.9442 25.8213 46.9913 25.608C46.0527 25.3947 45.242 25.096 44.5593 24.712C43.8767 24.328 43.2793 23.8373 42.7673 23.24C42.2696 22.6427 41.8642 22.0027 41.5513 21.32C41.2527 20.6373 41.0109 19.8409 40.826 18.9307C40.6411 18.0062 40.5131 17.0889 40.442 16.1787C40.3709 15.2542 40.3353 14.216 40.3353 13.064C40.3353 11.3573 40.4207 9.8711 40.5913 8.60532C40.7762 7.33955 41.1104 6.15199 41.594 5.04266C42.0775 3.9191 42.7176 3.00888 43.514 2.31199C44.3247 1.6151 45.3629 1.06755 46.6287 0.669323C47.9087 0.271102 49.4162 0.071991 51.1513 0.071991C52.346 0.071991 53.4198 0.185769 54.3727 0.413324C55.3256 0.626657 56.1433 0.925324 56.826 1.30932C57.5087 1.69332 58.0989 2.1911 58.5967 2.80266C59.1087 3.41421 59.514 4.06843 59.8127 4.76532C60.1256 5.44799 60.3744 6.25155 60.5593 7.17599C60.7442 8.10043 60.8722 9.01777 60.9433 9.92799C61.0144 10.8382 61.05 11.8693 61.05 13.0213C61.05 14.728 60.9576 16.2142 60.7727 17.48C60.5878 18.7458 60.2535 19.9333 59.77 21.0427C59.2864 22.1378 58.6393 23.0338 57.8287 23.7307C57.018 24.4133 55.9727 24.9538 54.6927 25.352C53.4269 25.736 51.9264 25.928 50.1913 25.928Z" fill="black"/>
<path d="M25.5778 25.48H18.5165V0.477325H25.5778V10.376H31.0605V0.477325H38.1218V25.48H31.0605V15.2827H25.5778V25.48Z" fill="black"/>
<path d="M8.14933 25.928C7.05422 25.928 6.03022 25.8284 5.07733 25.6293C4.13867 25.4444 3.34933 25.1956 2.70933 24.8827C2.06933 24.5698 1.54311 24.2711 1.13067 23.9867C0.732444 23.7022 0.398222 23.4178 0.128 23.1333L0.661333 17.9493C1.24444 18.7316 2.02667 19.4142 3.008 19.9973C3.98933 20.5662 5.04889 20.8507 6.18667 20.8507C7.32444 20.8507 8.14222 20.7298 8.64 20.488C9.152 20.2462 9.408 19.8053 9.408 19.1653C9.408 18.4827 9.11644 17.8996 8.53333 17.416C7.96444 16.9324 6.976 16.3493 5.568 15.6667C5.056 15.4107 4.62222 15.1831 4.26667 14.984C3.91111 14.7707 3.43467 14.4293 2.83733 13.96C2.25422 13.4764 1.77778 12.9787 1.408 12.4667C1.03822 11.9404 0.711111 11.272 0.426667 10.4613C0.142222 9.63644 0 8.75466 0 7.816C0 2.73866 2.86578 0.199997 8.59733 0.199997C9.50756 0.199997 10.3609 0.299552 11.1573 0.498663C11.968 0.683551 12.6009 0.889773 13.056 1.11733C13.5111 1.34488 13.9236 1.61511 14.2933 1.928C14.6773 2.22666 14.9191 2.44 15.0187 2.568C15.1182 2.68177 15.1893 2.77422 15.232 2.84533L14.1653 6.96266C13.6107 6.30844 12.9138 5.82488 12.0747 5.512C11.2498 5.18489 10.4604 5.02133 9.70667 5.02133C7.88622 5.02133 6.976 5.59022 6.976 6.728C6.976 7.02666 7.03289 7.29689 7.14667 7.53866C7.26044 7.78044 7.44533 8.00088 7.70133 8.2C7.95733 8.39911 8.192 8.56977 8.40533 8.712C8.63289 8.85422 8.93867 9.032 9.32267 9.24533C9.72089 9.44444 10.0196 9.608 10.2187 9.736C12.2951 10.6178 13.8169 11.6631 14.784 12.872C15.7653 14.0809 16.256 15.5529 16.256 17.288C16.256 20.104 15.5591 22.2516 14.1653 23.7307C12.7858 25.1956 10.7804 25.928 8.14933 25.928Z" fill="black"/>
</svg>
